<?xml version="1.0" encoding="utf-8"?>
<!-- Generator: Adobe Illustrator 22.0.0, SVG Export Plug-In . SVG Version: 6.00 Build 0)  -->
<svg version="1.1" xmlns="http://www.w3.org/2000/svg" xmlns:xlink="http://www.w3.org/1999/xlink" x="0px" y="0px"
	 viewBox="0 0 1000 600" style="enable-background:new 0 0 1000 600;" xml:space="preserve">
<style type="text/css">
	.st0{display:none;}
	.st1{fill:#CCCCCC;}
</style>
<g id="Capa_2" class="st0">
</g>
<g id="Capa_4">
	<g>
		<path class="st1" d="M827.5,200.8c-2.1,0-4.2,0.6-5.9,1.7L775,161.6l-91.6,62.1c-2.9-5.8-6.2-12-10.3-18.4l19.8-41.8
			c0,0-16.2-26.6-46.8-49.4L606.5,135c0,0-7.1-5.3-18.3-11.3l88-67L650,21.7c0.5-1.4,0.9-3,0.9-4.6c0-6.7-5.1-12.1-11.5-12.1
			c-6.3,0-11.5,5.4-11.5,12.1c0,6.7,5.1,12.1,11.5,12.1c0.6,0,1.1-0.1,1.7-0.1l18.8,25.3l-83.5,63.6c-9-4-19.3-7.6-30.2-9.5
			l-14.4-44.6c0,0-26.1-5.7-65.7,0l-14.4,44.6c0,0-30.6,4.7-60.3,26.6l-39.6-20.9c0,0-27.9,19.9-46.8,49.4l19.8,41.8
			c0,0-6.3,7-13.2,23.3l-88.5-36.2l-44.7,36.5c-1.8-1.2-3.9-1.9-6.2-1.9c-6.3,0-11.5,5.4-11.5,12.1s5.1,12.1,11.5,12.1
			c6.3,0,11.5-5.4,11.5-12.1c0-0.6-0.1-1.2-0.1-1.8l41.1-33.6l83.3,34.1c-3,8.5-6,18.8-8.4,31.1l-42.3,15.2c0,0-5.4,33.2,0,69.3
			l42.3,14.2c0,0,1.8,26.6,25.2,64.6L305,474c0,0,6.6,10.8,19.3,24.5l-42.7,49.4l-24.1-45.7c1.3-2,2.1-4.4,2.1-7
			c0-6.7-5.1-12.1-11.5-12.1c-6.3,0-11.5,5.4-11.5,12.1c0,6.7,5.1,12.1,11.5,12.1c0.4,0,0.8,0,1.2-0.1l30.4,57.7l51.3-59.4
			c5.9,5.9,12.9,12,20.8,17.9l39.6-20.9c0,0,21.6,18,60.3,26.6l14.4,44.6c0,0,35.1,5.7,65.7,0l14.4-44.6c0,0,15.8-2.5,36.2-12.4
			l36.4,51.5l54.5,16.4c0.6,6.1,5.5,10.8,11.4,10.8c6.3,0,11.5-5.4,11.5-12.1c0-6.7-5.1-12.1-11.5-12.1c-3.3,0-6.3,1.5-8.4,3.9
			l-51.9-15.6L591,512.2c5-2.8,10.2-6,15.5-9.7l39.6,20.9c0,0,27.9-19.9,46.8-49.4l-19.8-41.8c0,0,14.4-17.1,25.2-63.6l42.3-15.2
			c0,0,6.3-32.3,0-69.3l-42.3-15.2c0,0-1.4-14.5-10.8-36.2l86.7-58.7l42,36.7c-0.1,0.7-0.2,1.4-0.2,2.2c0,6.7,5.1,12.1,11.5,12.1
			c6.3,0,11.5-5.4,11.5-12.1S833.9,200.8,827.5,200.8z M498,494.8c-92.2,0-166.9-78.9-166.9-176.1c0-97.3,74.7-176.1,166.9-176.1
			S665,221.5,665,318.7C665,416,590.2,494.8,498,494.8z"/>
		<path class="st1" d="M358.1,319.3L498,466.8l139.9-147.6L498,171.7L358.1,319.3z M612.9,319.9l-113.8,120l-113.8-120l113.8-120
			L612.9,319.9z"/>
		<path class="st1" d="M461.8,315c3-3.5,6.7-5.8,11.2-5.8c9.4,0,15.8,7.8,15.8,21.3c0,13.1-6.4,21-15.3,21c-4.5,0-7.8-1.8-10.8-4.7
			L455,356c4.2,4.4,10.7,8.3,18.5,8.3c13.7,0,25-8.6,28.5-23.9c4.9,2.5,10.3,3.8,15.6,3.8c15.4,0,24-9.4,24-20.3
			c0-9.2-5.1-14.6-13.3-17.8l-7.6-3.4c-6-2.4-10.1-3.8-10.1-7.7c0-3.8,3.1-5.9,7.8-5.9c6.1,0,9.9,1.8,14.3,5.1l7.1-9.3
			c-5.6-5.6-13.2-8.6-20.6-8.6c-13.5,0-22.8,8.7-22.8,19.5c0,9.5,6.3,15.1,13.2,17.9l8.1,3.6c5.9,2.6,9.6,3.7,9.6,8.5
			c0,3.2-2.8,5.6-8.7,5.6c-5.6,0-11.1-2.5-15.6-6.1c-1.7-19.1-14.2-29-28.6-29c-8.4,0-15.3,3.3-20.4,9.6L461.8,315z"/>
	</g>
</g>
</svg>
